<svg xmlns="http://www.w3.org/2000/svg" viewBox="0 0 564.5 108.51"><title>athensdb</title><polygon points="334.67 98.69 334.6 105.2 343.03 105.2 343.1 98.69 334.67 98.69" style="fill:#706f6f"/><polygon points="321.92 98.69 321.85 105.2 331.6 105.2 331.67 98.69 321.92 98.69" style="fill:#706f6f"/><polygon points="345.6 98.69 345.53 105.2 354.01 105.2 354.07 98.69 345.6 98.69" style="fill:#706f6f"/><polygon points="308.08 98.69 308.01 105.2 318.35 105.2 318.42 98.69 308.08 98.69" style="fill:#706f6f"/><polygon points="253.57 98.69 253.51 105.2 268.01 105.2 268.07 98.69 253.57 98.69" style="fill:#706f6f"/><polygon points="356.07 98.69 356.01 105.2 363.85 105.2 363.85 98.69 356.07 98.69" style="fill:#706f6f"/><polygon points="274.08 98.69 274.01 105.2 287.51 105.2 287.57 98.69 274.08 98.69" style="fill:#706f6f"/><polygon points="292.58 98.69 292.51 105.2 304.01 105.2 304.07 98.69 292.58 98.69" style="fill:#706f6f"/><path d="M2741.31,223.51L2738.44,240H2749l-2.51,14.32h-10.58l-5.14,30.4a8.1,8.1,0,0,0,.4,4.71q0.83,1.59,4.13,1.71a47.83,47.83,0,0,0,5.26-.31l-1.47,14.93a32.54,32.54,0,0,1-10.83,1.53q-9.36-.12-14-5.51t-3.79-14.62l5.38-32.85h-8.2l2.45-14.32h8.2l2.88-16.46h20.13Z" transform="translate(-2614.8 -213.97)"/><path d="M2770,247.19q7.4-8.63,17.07-8.5,10,0.25,14.77,7.28t3.46,19.09l-6.85,41.11h-20.13l6.91-41.4a21.52,21.52,0,0,0,.12-3.92q-0.43-6.06-6.73-6.25a13,13,0,0,0-9.67,4l-8.44,47.59h-20.13l15.63-89.07h20Z" transform="translate(-2614.8 -213.97)"/><path d="M2834.45,307.39a30.77,30.77,0,0,1-15.81-4.19,26.39,26.39,0,0,1-10.49-11.5,30.9,30.9,0,0,1-2.81-16.24l0.18-1.71q1.65-16.33,11.35-25.85a31.39,31.39,0,0,1,23.77-9.15,25.61,25.61,0,0,1,14.56,4.32,24.15,24.15,0,0,1,8.87,11.58,35.48,35.48,0,0,1,1.83,16.57l-1.16,8.39h-39.4a12.9,12.9,0,0,0,2.94,8.44q2.81,3.24,8.2,3.43,8.75,0.25,15.72-6.73l8.44,11.17a24.91,24.91,0,0,1-10.43,8.33,36.67,36.67,0,0,1-14.65,3.14h-1.1Zm4.89-52.73a10.35,10.35,0,0,0-7.43,2.68q-3.15,2.8-5.48,9.37h20.13l0.37-1.77a13.43,13.43,0,0,0,.12-4Q2846,254.83,2839.34,254.65Z" transform="translate(-2614.8 -213.97)"/><path d="M2891.74,239.91l-1.41,8q8-9.42,19.15-9.18,9.18,0.18,13.67,6.82t3.27,19l-7,41.66h-20.19l7-41.83a21.77,21.77,0,0,0,.12-3.92q-0.43-5.82-6.85-5.82-5.32-.12-9.73,4.72l-8.26,46.86h-20.13L2873,240Z" transform="translate(-2614.8 -213.97)"/><path d="M2959.43,287.2q0.76-4-5.95-6.06l-4.14-1.1q-10.15-2.81-14.87-7.89A16,16,0,0,1,2930,260.1a19.45,19.45,0,0,1,8.08-15.51q7.79-6,19-5.84t18,5.93q6.91,5.81,7,15.66l-19.13-.06q0.23-7.83-6.59-7.83a9.1,9.1,0,0,0-5.42,1.8,7,7,0,0,0-3,4.8q-1,5,8.34,6.79a47,47,0,0,1,12.54,4.68,19.12,19.12,0,0,1,6.76,6.58,17,17,0,0,1,2.16,9.42,18.22,18.22,0,0,1-3.73,10.71,24.2,24.2,0,0,1-10.29,7.52,35.34,35.34,0,0,1-14.61,2.63,28.5,28.5,0,0,1-12.68-3,22.91,22.91,0,0,1-9.15-8,21.45,21.45,0,0,1-3.41-11.59l17.84,0.12q0.12,8.81,8.4,8.69a10.63,10.63,0,0,0,6.06-1.68A7.28,7.28,0,0,0,2959.43,287.2Z" transform="translate(-2614.8 -213.97)"/><path d="M2982.48,321V215.47H3031c9.44,0,17.21,1.31,23.08,3.9a38.21,38.21,0,0,1,14.73,11.28,46.58,46.58,0,0,1,8.38,17,78.06,78.06,0,0,1,2.57,20.25c0,11.1-1.3,19.87-3.85,26.06a43.87,43.87,0,0,1-10.75,15.7,35.52,35.52,0,0,1-14.9,8.49A75.3,75.3,0,0,1,3031,321h-48.56Zm40.94-26.28c6.34,0,10.86-.68,13.43-2a13.56,13.56,0,0,0,5.89-7c1.5-3.45,2.25-9.24,2.25-17.2,0-10.43-1.66-17.6-4.94-21.31s-8.78-5.51-16.5-5.51h-6.4v53h6.26Z" transform="translate(-2614.8 -213.97)"/><path d="M3031,217q13.91,0,22.48,3.78a36.57,36.57,0,0,1,14.16,10.84,44.88,44.88,0,0,1,8.11,16.43,76.22,76.22,0,0,1,2.52,19.86q0,16.43-3.74,25.49a42.19,42.19,0,0,1-10.38,15.17,33.88,33.88,0,0,1-14.26,8.15,73.48,73.48,0,0,1-18.88,2.8H2984V217H3031m-15.38,79.22h7.76q9.93,0,14.12-2.2a14.94,14.94,0,0,0,6.57-7.69q2.38-5.49,2.38-17.8,0-16.29-5.31-22.3t-17.62-6h-7.9v56M3031,214H2981V322.48H3031a76.79,76.79,0,0,0,19.66-2.9,37,37,0,0,0,15.52-8.84,45.35,45.35,0,0,0,11.12-16.23c2.67-6.47,4-15.18,4-26.63a79.58,79.58,0,0,0-2.62-20.64,48.06,48.06,0,0,0-8.66-17.52,39.7,39.7,0,0,0-15.3-11.72c-6.07-2.67-14-4-23.69-4h0Zm-12.38,29.21h4.9c7.27,0,12.44,1.68,15.37,5,2.08,2.36,4.56,7.79,4.56,20.32,0,7.75-.72,13.34-2.13,16.6-1.32,3-3,5.08-5.21,6.23-1.61.85-5.13,1.86-12.73,1.86h-4.76v-50h0Z" transform="translate(-2614.8 -213.97)" style="fill:#fff"/><path d="M3080.06,321V215.47h60.79c10.23,0,18.23,2.6,23.78,7.74a25.32,25.32,0,0,1,8.42,19.28,24.5,24.5,0,0,1-6,16.58,23.72,23.72,0,0,1-7.64,5.62c5.6,1.92,9.92,4.75,12.89,8.43,3.68,4.57,5.54,10.35,5.54,17.2a29.56,29.56,0,0,1-3.91,15.09A28.91,28.91,0,0,1,3163.2,316c-2.85,1.65-7,2.81-12.58,3.54a138.1,138.1,0,0,1-14.39,1.41h-56.18Zm49.61-25c5.06,0,8.61-.85,10.56-2.54a8.28,8.28,0,0,0,2.84-6.66,7.54,7.54,0,0,0-2.78-6.15c-1.93-1.6-5.52-2.42-10.68-2.42H3115V296h14.65Zm-2.38-40.27c4.54,0,7.68-.73,9.32-2.18s2.39-3.46,2.39-6.25a7.28,7.28,0,0,0-2.38-5.86c-1.64-1.43-4.71-2.15-9.12-2.15H3115v16.44h12.27Z" transform="translate(-2614.8 -213.97)"/><path d="M3140.85,217q14.82,0,22.76,7.34a23.77,23.77,0,0,1,7.94,18.18,22.94,22.94,0,0,1-5.66,15.59q-3.77,4.34-11,6.85,11,2.66,16.26,9.13t5.21,16.26a28,28,0,0,1-3.71,14.33,27.3,27.3,0,0,1-10.14,10.07q-4,2.31-12,3.36a138.53,138.53,0,0,1-14.19,1.4h-54.68V217h59.29m-27.34,40.21h13.77q7.41,0,10.31-2.55t2.9-7.38a8.77,8.77,0,0,0-2.9-7q-2.9-2.52-10.1-2.52h-14v19.44m0,40.27h16.15q8.18,0,11.54-2.9a9.78,9.78,0,0,0,3.36-7.8,9,9,0,0,0-3.32-7.31q-3.32-2.76-11.64-2.76h-16.08v20.77M3140.85,214h-62.29V322.48h57.68a138.7,138.7,0,0,0,14.58-1.42c5.81-.76,10.11-2,13.14-3.73a30.38,30.38,0,0,0,11.23-11.15,31,31,0,0,0,4.11-15.84c0-7.2-2-13.3-5.87-18.14a27.29,27.29,0,0,0-10.53-7.73,23.2,23.2,0,0,0,5.24-4.4,26,26,0,0,0,6.4-17.56,26.77,26.77,0,0,0-8.9-20.38c-5.84-5.4-14.18-8.14-24.8-8.14h0Zm-24.34,26.77h11c5.29,0,7.37,1.12,8.14,1.78a5.8,5.8,0,0,1,1.87,4.73c0,2.33-.62,4-1.88,5.12-0.77.67-2.87,1.8-8.33,1.8h-10.77V240.74h0Zm0,38.95h13.08c6,0,8.59,1.13,9.72,2.07a6,6,0,0,1,2.24,5,6.77,6.77,0,0,1-2.32,5.53c-1.15,1-3.74,2.17-9.58,2.17h-13.15V279.69h0Z" transform="translate(-2614.8 -213.97)" style="fill:#fff"/><polygon points="30.81 98.69 26.31 105.2 246.51 105.2 246.57 98.69 30.81 98.69" style="fill:#706f6f"/><path d="M2655.57,288.66h31v16.77h18.84v-89.2h-19.7L2614.8,319.17h19.66l4.5-6.5Zm31-44.58h0v27.86H2667Z" transform="translate(-2614.8 -213.97)"/></svg>