<svg xmlns="http://www.w3.org/2000/svg" viewBox="0 0 276.91 72.56"><title>timbala_logo_horizontal</title><path d="M76.28,14.91h25.36v7.22H93.08V51H84.86V22.13H76.28Z" style="fill:#1d1d1b"/><path d="M112.24,51H104V14.91h8.22Z" style="fill:#1d1d1b"/><path d="M145,29.61h-.22l-7.39,21.17h-4.9L125.1,29.61h-.22L123.17,51h-8.22l3.24-36.08h8.75l8,20.82,8-20.82h8.75L154.92,51H146.7Z" style="fill:#1d1d1b"/><path d="M168.83,14.91c6.21,0,11.11,2.32,11.11,9.18a8.24,8.24,0,0,1-4.5,7.74c4.5.79,7.7,3.28,7.7,9.1S178.8,51,171.33,51H157.64V14.91ZM166.52,29c3.54,0,5.47-1.09,5.47-4.11,0-2.58-1.88-3.67-5.47-3.67h-.66V29Zm1.92,15.61c3.89,0,6-1.18,6-4,0-3.32-2.14-4.5-6-4.5h-2.58v8.53Z" style="fill:#1d1d1b"/><path d="M218.17,51h-8.83l-2.67-7.22H192.93L190.27,51h-8.83L196,14.91h7.61ZM199.84,26.07h-.09l-4,10.5h8.13Z" style="fill:#1d1d1b"/><path d="M227.18,43.78H239.6V51H219V14.91h8.22Z" style="fill:#1d1d1b"/><path d="M276.6,51h-8.83l-2.67-7.22H251.37L248.7,51h-8.83l14.56-36.08H262ZM258.28,26.07h-.09l-4,10.5h8.13Z" style="fill:#1d1d1b"/><path d="M84.51,67.33V58.85h2a2.92,2.92,0,0,1,2.31.93,3.81,3.81,0,0,1,.82,2.61v1.42a3.73,3.73,0,0,1-.83,2.6,3.1,3.1,0,0,1-2.42.92Zm1.07-7.56v6.65h.86a2,2,0,0,0,1.64-.64,3,3,0,0,0,.53-1.91v-1.5a3.08,3.08,0,0,0-.51-2,1.9,1.9,0,0,0-1.56-.63Z" style="fill:#1d1d1b"/><path d="M97.56,58.85v6a2.57,2.57,0,0,1-.7,1.89,2.59,2.59,0,0,1-4.51-1.89v-6h1.06v6a1.92,1.92,0,0,0,.36,1.28,1.85,1.85,0,0,0,2.35,0,1.91,1.91,0,0,0,.36-1.28v-6Z" style="fill:#1d1d1b"/><path d="M103,63.9h-1.49v3.43h-1.07V58.85h2.38a2.53,2.53,0,0,1,1.89.65,2.6,2.6,0,0,1,.64,1.9,2.64,2.64,0,0,1-.35,1.37,2.19,2.19,0,0,1-1,.88l1.64,3.6v.07h-1.15ZM101.46,63h1.29a1.39,1.39,0,0,0,1.07-.43,1.64,1.64,0,0,0,.4-1.15q0-1.63-1.48-1.63h-1.28Z" style="fill:#1d1d1b"/><path d="M111.86,65.11H109l-.66,2.22h-1.09L110,58.85h.91l2.74,8.48h-1.09Zm-2.58-.91h2.31l-1.16-3.85Z" style="fill:#1d1d1b"/><path d="M116,67.33V58.85h2.42a2.42,2.42,0,0,1,1.74.56,2.25,2.25,0,0,1,.58,1.69,1.87,1.87,0,0,1-.3,1,2,2,0,0,1-.8.7,1.61,1.61,0,0,1,.92.72,2.39,2.39,0,0,1,.34,1.3,2.48,2.48,0,0,1-.63,1.79,2.36,2.36,0,0,1-1.78.65ZM117,62.47h1.37a1.15,1.15,0,0,0,.89-.37,1.72,1.72,0,0,0,0-2,1.26,1.26,0,0,0-.94-.32H117Zm0,.9v3.05h1.46a1.22,1.22,0,0,0,1-.4,1.63,1.63,0,0,0,.36-1.12q0-1.53-1.29-1.53Z" style="fill:#1d1d1b"/><path d="M124.74,66.41h3.32v.91h-4.39V58.85h1.07Z" style="fill:#1d1d1b"/><path d="M134.58,63.41h-3v3h3.49v.91h-4.56V58.85H135v.91h-3.43V62.5h3Z" style="fill:#1d1d1b"/><path d="M146.27,59.77H144v7.56H143V59.77h-2.22v-.91h5.52Z" style="fill:#1d1d1b"/><path d="M149.83,67.33h-1.06V58.85h1.06Z" style="fill:#1d1d1b"/><path d="M154.27,58.85l2.21,6.92,2.21-6.92h1.37v8.48H159V64l.1-3.31-2.22,6.61h-.82l-2.21-6.58L154,64v3.3h-1.07V58.85Z" style="fill:#1d1d1b"/><path d="M167.15,63.41h-3v3h3.49v.91h-4.56V58.85h4.5v.91h-3.43V62.5h3Z" style="fill:#1d1d1b"/><path d="M172,64.17h-2.4v-.88H172Z" style="fill:#1d1d1b"/><path d="M178.05,65.19a1.3,1.3,0,0,0-.34-1,3.52,3.52,0,0,0-1.24-.66,5.38,5.38,0,0,1-1.37-.67,2.38,2.38,0,0,1-.71-.8,2.38,2.38,0,0,1,.44-2.69,2.42,2.42,0,0,1,1.76-.65,2.63,2.63,0,0,1,1.33.33,2.27,2.27,0,0,1,.9.93,2.74,2.74,0,0,1,.31,1.3h-1.07a1.78,1.78,0,0,0-.38-1.22,1.37,1.37,0,0,0-1.09-.43,1.34,1.34,0,0,0-1,.36,1.38,1.38,0,0,0-.36,1,1.18,1.18,0,0,0,.38.9,3.41,3.41,0,0,0,1.19.65,4.08,4.08,0,0,1,1.79,1,2.29,2.29,0,0,1,.54,1.58,2.14,2.14,0,0,1-.67,1.65,2.58,2.58,0,0,1-1.82.62,2.93,2.93,0,0,1-1.36-.32,2.44,2.44,0,0,1-1-.91,2.52,2.52,0,0,1-.36-1.34H175a1.65,1.65,0,0,0,.44,1.22,1.62,1.62,0,0,0,1.2.44,1.42,1.42,0,0,0,1.06-.36A1.34,1.34,0,0,0,178.05,65.19Z" style="fill:#1d1d1b"/><path d="M185.78,63.41h-3v3h3.49v.91h-4.56V58.85h4.5v.91h-3.43V62.5h3Z" style="fill:#1d1d1b"/><path d="M191.39,63.9H189.9v3.43h-1.07V58.85h2.38a2.53,2.53,0,0,1,1.89.65,2.6,2.6,0,0,1,.64,1.9,2.64,2.64,0,0,1-.35,1.37,2.19,2.19,0,0,1-1,.88l1.64,3.6v.07H192.9ZM189.9,63h1.29a1.39,1.39,0,0,0,1.07-.43,1.64,1.64,0,0,0,.4-1.15q0-1.63-1.48-1.63H189.9Z" style="fill:#1d1d1b"/><path d="M197.46,67.33H196.4V58.85h1.06Z" style="fill:#1d1d1b"/><path d="M204.59,63.41h-3v3h3.49v.91h-4.56V58.85H205v.91h-3.43V62.5h3Z" style="fill:#1d1d1b"/><path d="M211.34,65.19a1.3,1.3,0,0,0-.34-1,3.52,3.52,0,0,0-1.24-.66,5.38,5.38,0,0,1-1.37-.67,2.38,2.38,0,0,1-.71-.8,2.38,2.38,0,0,1,.44-2.69,2.42,2.42,0,0,1,1.76-.65,2.63,2.63,0,0,1,1.33.33,2.27,2.27,0,0,1,.9.93,2.74,2.74,0,0,1,.31,1.3h-1.07a1.78,1.78,0,0,0-.38-1.22,1.37,1.37,0,0,0-1.09-.43,1.34,1.34,0,0,0-1,.36,1.38,1.38,0,0,0-.36,1,1.18,1.18,0,0,0,.38.9,3.41,3.41,0,0,0,1.19.65,4.08,4.08,0,0,1,1.79,1,2.29,2.29,0,0,1,.54,1.58,2.14,2.14,0,0,1-.67,1.65,2.58,2.58,0,0,1-1.82.62,2.93,2.93,0,0,1-1.36-.32,2.44,2.44,0,0,1-1-.91,2.52,2.52,0,0,1-.36-1.34h1.07a1.65,1.65,0,0,0,.44,1.22,1.62,1.62,0,0,0,1.2.44,1.42,1.42,0,0,0,1.06-.36A1.34,1.34,0,0,0,211.34,65.19Z" style="fill:#1d1d1b"/><path d="M218.93,67.33V58.85h2a2.92,2.92,0,0,1,2.31.93,3.81,3.81,0,0,1,.82,2.61v1.42a3.73,3.73,0,0,1-.83,2.6,3.1,3.1,0,0,1-2.42.92ZM220,59.77v6.65h.86a2,2,0,0,0,1.64-.64,3,3,0,0,0,.53-1.91v-1.5a3.08,3.08,0,0,0-.51-2,1.9,1.9,0,0,0-1.56-.63Z" style="fill:#1d1d1b"/><path d="M230.87,65.11H228l-.66,2.22h-1.09L229,58.85h.91l2.74,8.48h-1.09Zm-2.58-.91h2.31l-1.16-3.85Z" style="fill:#1d1d1b"/><path d="M239.19,59.77H237v7.56h-1.06V59.77h-2.22v-.91h5.52Z" style="fill:#1d1d1b"/><path d="M245.12,65.11h-2.86l-.66,2.22h-1.09l2.73-8.48h.91l2.74,8.48h-1.09Zm-2.58-.91h2.31l-1.16-3.85Z" style="fill:#1d1d1b"/><path d="M249.23,67.33V58.85h2.42a2.42,2.42,0,0,1,1.74.56,2.25,2.25,0,0,1,.58,1.69,1.87,1.87,0,0,1-.3,1,2,2,0,0,1-.8.7,1.61,1.61,0,0,1,.92.72,2.39,2.39,0,0,1,.34,1.3,2.48,2.48,0,0,1-.63,1.79,2.36,2.36,0,0,1-1.78.65Zm1.07-4.86h1.37a1.15,1.15,0,0,0,.89-.37,1.72,1.72,0,0,0,0-2,1.26,1.26,0,0,0-.94-.32H250.3Zm0,.9v3.05h1.46a1.22,1.22,0,0,0,1-.4,1.63,1.63,0,0,0,.36-1.12q0-1.53-1.29-1.53Z" style="fill:#1d1d1b"/><path d="M260.88,65.11H258l-.66,2.22h-1.09L259,58.85h.91l2.74,8.48h-1.09Zm-2.58-.91h2.31l-1.16-3.85Z" style="fill:#1d1d1b"/><path d="M268.69,65.19a1.3,1.3,0,0,0-.34-1,3.52,3.52,0,0,0-1.24-.66,5.38,5.38,0,0,1-1.37-.67,2.38,2.38,0,0,1-.71-.8,2.38,2.38,0,0,1,.44-2.69,2.42,2.42,0,0,1,1.76-.65,2.63,2.63,0,0,1,1.33.33,2.27,2.27,0,0,1,.9.93,2.74,2.74,0,0,1,.31,1.3h-1.07a1.78,1.78,0,0,0-.38-1.22,1.37,1.37,0,0,0-1.09-.43,1.34,1.34,0,0,0-1,.36,1.38,1.38,0,0,0-.36,1,1.18,1.18,0,0,0,.38.9,3.41,3.41,0,0,0,1.19.65,4.08,4.08,0,0,1,1.79,1,2.29,2.29,0,0,1,.54,1.58,2.14,2.14,0,0,1-.67,1.65,2.58,2.58,0,0,1-1.82.62,2.93,2.93,0,0,1-1.36-.32,2.44,2.44,0,0,1-1-.91,2.52,2.52,0,0,1-.36-1.34h1.07a1.65,1.65,0,0,0,.44,1.22,1.62,1.62,0,0,0,1.2.44,1.42,1.42,0,0,0,1.06-.36A1.34,1.34,0,0,0,268.69,65.19Z" style="fill:#1d1d1b"/><path d="M276.42,63.41h-3v3h3.49v.91h-4.56V58.85h4.5v.91h-3.43V62.5h3Z" style="fill:#1d1d1b"/><circle cx="32.21" cy="66.72" r="4.84" style="fill:#fff;stroke:#000;stroke-miterlimit:10;stroke-width:2px"/><circle cx="59.02" cy="21.06" r="4.84" style="fill:#fff;stroke:#000;stroke-miterlimit:10;stroke-width:2px"/><circle cx="59.02" cy="51.28" r="4.84" style="fill:#fff;stroke:#000;stroke-miterlimit:10;stroke-width:2px"/><circle cx="5.84" cy="21.06" r="4.84" style="fill:#fff;stroke:#000;stroke-miterlimit:10;stroke-width:2px"/><circle cx="5.84" cy="51.28" r="4.84" style="fill:#fff;stroke:#000;stroke-miterlimit:10;stroke-width:2px"/><circle cx="32.21" cy="5.84" r="4.84" style="fill:#fff;stroke:#000;stroke-miterlimit:10;stroke-width:2px"/><circle cx="32.74" cy="36.28" r="30.44" style="fill:#fff;stroke:#000;stroke-miterlimit:10;stroke-width:2px"/><circle cx="32.74" cy="36.28" r="25.72" style="fill:#e9e9e9;stroke:#000;stroke-miterlimit:10;stroke-width:0.96911514695873px"/></svg>